<?xml version="1.0" encoding="UTF-8" standalone="no"?>
<svg
   width="64.02916mm"
   height="95.779167mm"
   viewBox="0 0 64.02916 95.779167"
   version="1.1"
   id="svg1"
   sodipodi:docname="UNO_black_background_card_back.svg"
   inkscape:version="1.3.2 (1:1.3.2+202311252150+091e20ef0f)"
   xmlns:inkscape="http://www.inkscape.org/namespaces/inkscape"
   xmlns:sodipodi="http://sodipodi.sourceforge.net/DTD/sodipodi-0.dtd"
   xmlns="http://www.w3.org/2000/svg"
   xmlns:svg="http://www.w3.org/2000/svg">
  <defs
     id="defs1" />
  <sodipodi:namedview
     id="namedview1"
     pagecolor="#ffffff"
     bordercolor="#000000"
     borderopacity="0.25"
     inkscape:showpageshadow="2"
     inkscape:pageopacity="0.0"
     inkscape:pagecheckerboard="0"
     inkscape:deskcolor="#d1d1d1"
     inkscape:document-units="mm"
     showgrid="false"
     inkscape:zoom="3.2486188"
     inkscape:cx="120.82058"
     inkscape:cy="181"
     inkscape:window-width="2485"
     inkscape:window-height="1376"
     inkscape:window-x="75"
     inkscape:window-y="27"
     inkscape:window-maximized="1"
     inkscape:current-layer="svg1" />
  <style
     id="style1">
  	.st0{fill-rule:evenodd;clip-rule:evenodd;fill:#ED1C24;}
    .st1{fill:#FFFFFF;}
    .st2{fill-rule:evenodd;clip-rule:evenodd;}
    .st3{fill-rule:evenodd;clip-rule:evenodd;fill:#FFFFFF;}
    .st4{fill-rule:evenodd;clip-rule:evenodd;fill:#F8DA27;}
    .st5{fill-rule:evenodd;clip-rule:evenodd;fill:#58585A;}
  </style>
  <rect
     width="63.499996"
     height="95.25"
     rx="10.583333"
     ry="10.583333"
     x="0.2645835"
     y="0.2645835"
     id="rect2987-8-5-81-2-1"
     style="fill:#ffffff;fill-opacity:1;fill-rule:evenodd;stroke:#000000;stroke-width:0.529167;stroke-miterlimit:4;stroke-dasharray:none" />
  <rect
     width="52.916664"
     height="84.666664"
     rx="5.2916665"
     ry="5.2916665"
     x="5.5562515"
     y="5.5562477"
     id="rect3757-26-33-5-9-9"
     style="fill:#000000;fill-opacity:1;fill-rule:evenodd;stroke:none;stroke-width:1.05833" />
  <g
     id="g1"
     transform="matrix(0.38555993,0,0,0.38555993,4.1,27.296)">
    <path
       class="st0"
       d="m 56.588932,9.0015553 c 16.902156,-8.97674297 35.09826,-10.836789 49.978618,-7.359312 33.88519,8.006284 36.55395,33.4808237 18.51959,59.7640837 -8.2489,12.04986 -20.4605,23.61449 -35.179128,30.89293 -24.180594,11.969003 -47.30986,12.615973 -62.513713,3.39661 -15.284725,-9.21936 -18.923945,-24.7467 -13.505551,-41.2445 5.580138,-17.14477 21.188349,-34.77477 42.700184,-45.4498117 z"
       id="path4"
       style="clip-rule:evenodd;fill:#ed1c24;fill-rule:evenodd;stroke-width:0.808716" />
    <path
       class="st1"
       d="m 109.80242,28.491597 v 0 c -0.0809,0.97046 -0.0809,1.94092 0.0809,2.91138 0.16174,1.05133 0.40436,2.18353 0.80871,3.23486 0.5661,1.53656 1.37482,2.91138 2.26441,4.04358 0.80871,1.05133 1.77917,1.86005 2.91137,2.50702 1.37482,0.5661 2.66877,0.88959 3.7201,0.80871 0.88958,0 1.53655,-0.24261 2.02178,-0.64697 0.32349,-0.32348 0.56611,-0.80871 0.64698,-1.45569 0.16174,-0.88958 0,-2.02179 -0.24262,-3.47747 -0.0809,-0.40436 -0.16174,-0.72785 -0.24261,-1.13221 -0.0809,-0.32348 -0.24262,-0.72784 -0.32349,-1.05133 -0.72784,-1.86004 -1.6983,-3.55834 -2.91137,-4.85229 -1.05134,-1.1322 -2.34528,-1.94092 -3.7201,-2.34527 -1.45568,-0.40436 -2.66876,-0.40436 -3.55835,-0.0809 -0.5661,0.24262 -1.05133,0.64698 -1.29394,1.29395 z M 109.15544,5.6858213 c 7.19757,-2.668761 14.31427,-2.102661 20.37964,0.889587 6.30798,3.073119 11.40289,8.8149987 14.07165,16.0125687 1.53656,4.04358 2.10266,8.2489 1.86004,12.21161 -0.24261,4.04357 -1.29394,7.92541 -3.23486,11.40289 -0.0809,0.16174 -0.16174,0.40435 -0.40436,0.72784 -0.16174,0.32349 -0.32348,0.5661 -0.40435,0.72784 -2.91138,4.77143 -5.90363,8.2489 -8.89588,10.75592 -3.07311,2.50702 -6.06536,4.12445 -9.05761,5.25665 -7.35931,2.74964 -14.63775,2.18353 -20.78399,-0.80871 -6.469728,-3.15399 -11.645508,-8.815 -14.314268,-16.09344 -1.45568,-3.96271 -2.18353,-7.92542 -2.02179,-11.72638 0.16175,-3.88183 1.05133,-7.60193 2.74964,-11.0794 1.29394,-2.58789 3.31573,-5.58014 5.98449,-8.41065 2.34528,-2.50701 5.175778,-4.933161 8.329768,-7.0358207 v 0 c 0.80872,-0.566101 1.69831,-1.051331 2.58789,-1.53656 1.21308,-0.485229 2.18354,-0.970459 3.15399,-1.293945 z"
       id="path6"
       style="fill:#ffffff;stroke-width:0.808716" />
    <path
       class="st1"
       d="m 75.512877,18.948757 12.292475,-4.60968 c 1.1322,-0.40436 2.34528,0.16174 2.74964,1.29395 0,0.0809 0.0809,0.0809 0.0809,0.16174 l 17.468248,46.66289 c 0.16175,0.24261 0.24262,0.5661 0.24262,0.88959 0.0809,0.64697 -0.16174,1.29394 -0.64697,1.6983 l -5.74188,5.74188 c -0.24262,0.24261 -0.48523,0.40436 -0.80872,0.48523 l -10.108948,3.72009 c -0.64697,0.24262 -1.37481,0.16174 -1.94091,-0.24261 v 0 l -11.402893,-7.60193 2.183532,5.74188 c 0.161743,0.32349 0.323487,0.72784 0.323487,1.1322 0,0.5661 -0.242615,1.1322 -0.646973,1.45569 l -5.741881,5.74188 c -0.242614,0.24262 -0.485229,0.40436 -0.727844,0.48523 v 0 l -12.373348,4.60968 c -1.132202,0.40436 -2.345276,-0.16174 -2.749633,-1.29395 L 40.333748,37.872697 c -0.323486,-0.88958 -0.08087,-1.86004 0.646973,-2.42614 l 5.580138,-5.58014 c 0.242614,-0.24261 0.485229,-0.40436 0.808715,-0.48523 l 10.755918,-3.96271 c 0.646972,-0.24261 1.374816,-0.16174 1.940917,0.24262 v 0 l 10.513303,6.87408 -1.940918,-5.17578 c -0.323486,-0.80871 -0.08087,-1.6983 0.48523,-2.2644 l 5.661009,-5.74188 c 0.242615,-0.16175 0.485229,-0.32349 0.727844,-0.40436 z"
       id="path8"
       style="fill:#ffffff;stroke-width:0.808716" />
    <path
       class="st1"
       d="m 33.621409,96.181097 c -4.852294,0.48523 -9.057615,-0.40436 -12.696835,-2.58789 -4.933165,-2.91138 -8.572385,-8.00628 -11.079404,-14.55688 L 0.14058299,52.995687 c -0.323486,-0.88959 -0.08087,-1.86005 0.646973,-2.42615 L 6.367693,44.989397 c 0.242615,-0.24261 0.48523,-0.40436 0.727844,-0.48523 v 0 l 12.373349,-4.60968 c 1.132202,-0.40435 2.345275,0.16175 2.749633,1.29395 l 9.947202,26.60674 c 0.566101,1.53656 1.374816,2.99225 2.507018,3.96271 0.808716,0.72784 1.860046,1.21307 3.153991,1.29394 0.242615,0 0.566101,0 0.808716,0 0,-0.48523 -0.08087,-0.97046 -0.161743,-1.45568 -0.161744,-0.72785 -0.323487,-1.45569 -0.646973,-2.26441 l -9.947202,-26.60674 c -0.323486,-0.88959 -0.08087,-1.86005 0.646973,-2.42615 l 5.418394,-5.41839 c 0.242615,-0.32349 0.566101,-0.5661 0.970459,-0.72785 l 12.373349,-4.60968 c 1.132201,-0.40435 2.345275,0.16175 2.749633,1.29395 l 9.86633,26.36413 c 1.53656,4.04358 2.264404,7.92541 2.183532,11.56463 -0.08087,3.63922 -0.889587,7.03583 -2.58789,10.10895 -1.374816,2.42614 -3.962706,4.93316 -6.550596,7.44018 -0.566101,0.5661 -1.213074,1.1322 -1.698303,1.61743 l -0.08087,0.0809 c -0.970459,1.05133 -2.102661,2.02179 -3.315734,2.83051 -4.12445,2.91137 -9.057615,4.77142 -14.233395,5.33752 z"
       id="path10"
       style="fill:#ffffff;stroke-width:0.808716" />
    <polygon
       class="st2"
       points="290,437.3 268.2,379 275.3,371.9 288.7,367 308.4,379.9 303.2,366 310.2,358.9 325.4,353.2 347.3,411.5 340.2,418.6 327.6,423.2 306.7,409.3 312.3,424.5 312.4,424.5 305.3,431.5 "
       id="polygon12"
       style="clip-rule:evenodd;fill-rule:evenodd"
       transform="matrix(0.8087156,0,0,0.8087156,-174.62286,-269.27748)" />
    <path
       class="st2"
       d="m 109.96416,7.7076103 c 13.50555,-5.014037 26.84936,2.5878897 31.70165,15.6082067 2.83051,7.52106 2.2644,15.60822 -1.21307,21.99707 -0.16175,0.40436 -0.40436,0.80871 -0.64697,1.21307 -5.58014,9.21936 -11.32202,13.02032 -16.90216,15.12298 -13.90991,5.17578 -27.415458,-2.58789 -32.348618,-15.60821 -2.74964,-7.44018 -2.50702,-14.71862 0.64697,-21.10747 2.2644,-4.60968 7.19757,-10.43244 13.586418,-14.637757 v 0 c 1.53656,-1.0513297 3.31573,-1.9409177 5.17578,-2.5878897 z m -2.2644,20.3796367 c 0,-0.0809 0.0809,-0.16175 0.0809,-0.24262 0.88958,-2.91137 3.80096,-3.80096 7.44018,-2.8305 3.72009,0.97046 6.5506,4.44793 8.08716,8.49151 0.32348,0.80872 0.5661,1.61743 0.72784,2.50702 0.72785,3.31573 0.40436,5.66101 -0.97046,6.95495 -1.61743,1.53656 -4.60968,1.61743 -8.00628,0.16175 -2.83051,-1.53656 -5.01404,-4.36707 -6.30798,-7.76367 -0.97046,-2.42615 -1.29395,-4.93317 -1.05133,-7.27844 z"
       id="path14"
       style="clip-rule:evenodd;fill-rule:evenodd;stroke-width:0.808716" />
    <polygon
       class="st2"
       points="310.2,358.9 325.4,353.2 347.3,411.5 334.7,416.1 300.9,393.7 312.3,424.5 297,430.2 275.3,371.9 288.7,367 321.2,388.2 "
       id="polygon16"
       style="clip-rule:evenodd;fill-rule:evenodd"
       transform="matrix(0.8087156,0,0,0.8087156,-174.62286,-269.27748)" />
    <polygon
       class="st3"
       points="312.8,360.1 324.2,355.8 344.7,410.3 334.9,413.9 296.8,388.6 309.8,423.3 298.2,427.6 277.9,373.1 288.4,369.2 325.2,393.3 "
       id="polygon18"
       style="clip-rule:evenodd;fill:#ffffff;fill-rule:evenodd"
       transform="matrix(0.8087156,0,0,0.8087156,-174.62286,-269.27748)" />
    <polygon
       class="st4"
       points="299.1,425.8 279.7,374 288.2,370.8 328,396.8 314.6,360.9 323.4,357.6 342.8,409.5 335.1,412.3 294,385 308,422.5 "
       id="polygon20"
       style="clip-rule:evenodd;fill:#f8da27;fill-rule:evenodd"
       transform="matrix(0.8087156,0,0,0.8087156,-174.62286,-269.27748)" />
    <path
       class="st2"
       d="m 109.96416,7.7076103 c 13.50555,-5.014037 26.84936,2.5878897 31.70165,15.6082067 4.85229,13.02033 -0.24261,27.57721 -13.66729,32.59124 -13.50555,5.01404 -26.84936,-2.58789 -31.701648,-15.60821 -4.93317,-13.10119 0.16174,-27.5772 13.667288,-32.5912367 z m 4.44794,11.8881167 c -6.79322,2.50702 -8.00629,9.46197 -5.66101,15.76996 2.34527,6.22711 7.76367,10.67504 14.63775,8.16802 6.79321,-2.58789 8.00628,-9.46197 5.66101,-15.76995 -2.42615,-6.22711 -7.84454,-10.67505 -14.63775,-8.16803 z"
       id="path22"
       style="clip-rule:evenodd;fill-rule:evenodd;stroke-width:0.808716" />
    <path
       class="st3"
       d="m 110.53026,9.2441703 c 12.61596,-4.690551 25.07018,2.4261457 29.67986,14.7186267 4.52881,12.2116 -0.16174,25.79802 -12.7777,30.56945 -12.61597,4.69055 -25.07019,-2.50702 -29.679868,-14.71863 -4.5288,-12.29247 0.0809,-25.8789 12.777708,-30.5694467 z m 3.31573,8.8149967 c -7.68279,2.83051 -9.30022,10.75592 -6.63146,17.87262 2.66876,7.11669 8.97674,11.96899 16.74041,9.13848 7.6828,-2.91137 9.30023,-10.75591 6.63147,-17.79174 -2.74964,-7.1167 -9.05762,-12.04986 -16.74042,-9.21936 z"
       id="path24"
       style="clip-rule:evenodd;fill:#ffffff;fill-rule:evenodd;stroke-width:0.808716" />
    <path
       class="st4"
       d="m 113.44164,17.007837 c 8.00628,-2.99225 15.12298,1.77918 18.11523,9.78546 2.99224,8.00629 0.72784,16.25518 -7.27844,19.24743 -8.00629,2.99225 -15.20386,-1.77917 -18.19611,-9.78546 -2.99224,-7.92541 -0.64697,-16.25518 7.35932,-19.24743 z M 110.93462,10.2955 c 11.80725,-4.4479357 23.77624,2.10266 28.22417,13.990777 4.44794,11.88812 -0.32348,24.66583 -12.04986,29.03289 -11.80725,4.36707 -23.77624,-2.10266 -28.224168,-13.99078 -4.52881,-11.88812 0.16174,-24.66582 12.049858,-29.032887 z"
       id="path26"
       style="clip-rule:evenodd;fill:#f8da27;fill-rule:evenodd;stroke-width:0.808716" />
    <path
       class="st2"
       d="m 32.327464,94.159307 c -9.704587,0.5661 -16.57867,-5.66101 -20.379633,-15.9317 l -9.704587,-26.04064 5.661009,-5.74188 12.373349,-4.60968 9.947201,26.60674 c 1.293945,3.39661 3.639221,6.38886 7.601927,6.5506 1.132202,0.0809 2.668762,-0.0809 2.992248,-1.53656 0.08087,-1.6983 -0.242615,-3.3966 -0.889587,-5.01404 l -9.947202,-26.60674 5.741881,-5.74188 v 0 0 0 0 l 12.292477,-4.60968 9.86633,26.36413 c 2.830505,7.60193 2.830505,14.39514 -0.242615,19.8944 -1.455688,2.58789 -4.933165,5.66101 -7.844541,8.57239 v 0 c -4.447936,4.69055 -11.160275,7.52105 -17.468257,7.84454 z"
       id="path28"
       style="clip-rule:evenodd;fill-rule:evenodd;stroke-width:0.808716" />
    <path
       class="st2"
       d="m 48.582648,85.506047 0.08087,0.16175 -2.58789,0.97046 c -0.08087,0 -0.161743,0.0809 -0.161743,0.0809 -0.08087,0 -0.161743,0.0809 -0.242615,0.0809 l -2.587889,0.97046 -0.08087,-0.16175 c -12.37335,3.23481 -20.864864,-3.23492 -25.312799,-15.12304 l -9.704588,-26.04064 12.373349,-4.60968 9.947202,26.60674 c 1.293945,3.39661 3.63922,6.38886 7.601927,6.5506 1.132202,0.0809 2.345275,-0.16174 3.396605,-0.5661 1.132202,-0.40436 2.183532,-1.05133 2.992248,-1.86005 2.830505,-2.66876 2.668761,-6.46972 1.374816,-9.86633 l -10.028073,-26.60674 12.373349,-4.60968 9.86633,26.36413 c 4.447936,11.96899 2.264404,22.07794 -9.300229,27.65807 z"
       id="path30"
       style="clip-rule:evenodd;fill-rule:evenodd;stroke-width:0.808716" />
    <path
       class="st3"
       d="m 46.479987,84.697337 v 0 l -1.05133,0.40436 c -0.08087,0 -0.161743,0.0809 -0.242615,0.0809 -0.08087,0 -0.161743,0.0809 -0.242615,0.0809 l -1.05133,0.40436 v 0 C 31.59962,89.549627 23.431592,83.646007 19.1454,72.000497 l -9.138487,-24.50408 9.30023,-3.47748 9.381101,25.07019 c 1.536559,4.04358 4.447936,7.44018 9.057615,7.60192 1.374816,0.0809 2.749633,-0.16174 4.043578,-0.64697 1.293945,-0.48523 2.587889,-1.21307 3.558348,-2.18353 3.315734,-3.15399 3.315734,-7.60193 1.779175,-11.64551 l -9.381101,-25.07018 9.300229,-3.47748 9.300229,24.82757 c 4.367065,11.64551 2.021789,21.10748 -9.86633,26.20239 z"
       id="path32"
       style="clip-rule:evenodd;fill:#ffffff;fill-rule:evenodd;stroke-width:0.808716" />
    <path
       class="st4"
       d="m 11.462602,48.143387 7.197568,-2.66876 8.976744,24.01885 c 2.992247,7.92542 9.300229,9.54285 14.55688,7.60193 5.256652,-2.02179 9.057615,-7.35931 5.984496,-15.28472 l -8.976743,-24.01886 7.197568,-2.66876 8.895872,23.77624 c 3.558349,9.46197 3.558349,19.81353 -10.270688,25.23193 v 0 c -0.08087,0 -0.161743,0.0809 -0.242615,0.0809 -0.08087,0 -0.161743,0.0809 -0.242614,0.0809 v 0 c -13.586422,4.85229 -20.783991,-2.91138 -24.423212,-12.61596 z"
       id="path34"
       style="clip-rule:evenodd;fill:#f8da27;fill-rule:evenodd;stroke-width:0.808716" />
    <path
       class="st5"
       d="m 72.439758,27.035917 4.447936,-4.52881 2.507018,6.71234 -4.447936,4.52881 z m 3.315734,8.97674 4.447936,-4.52881 0.970458,2.50702 -4.447936,4.52881 z"
       id="path36"
       style="clip-rule:evenodd;fill:#58585a;fill-rule:evenodd;stroke-width:0.808716" />
    <path
       class="st5"
       d="m 31.842235,42.239767 4.447935,-4.52881 2.507019,6.71234 -4.447936,4.52881 z m 3.315734,8.97674 4.447935,-4.52881 0.970459,2.50702 -4.447936,4.52881 z"
       id="path38"
       style="clip-rule:evenodd;fill:#58585a;fill-rule:evenodd;stroke-width:0.808716" />
    <path
       class="st5"
       d="m 9.683427,67.714307 4.447936,-4.52881 2.507018,6.71234 -4.447935,4.52881 z m 3.396606,8.97674 4.447936,-4.5288 v 0 l 0.161743,0.32348 c 0.323486,0.72785 0.566101,1.45569 0.889587,2.18353 l -4.528808,4.52881 z"
       id="path40"
       style="clip-rule:evenodd;fill:#58585a;fill-rule:evenodd;stroke-width:0.808716" />
    <path
       class="st5"
       d="m 119.91136,25.661097 4.52881,-4.52881 c 1.61743,1.29395 2.99225,3.15399 3.96271,5.25665 l -4.44794,4.44794 c -0.97046,-1.94092 -2.34528,-3.80096 -4.04358,-5.17578 z m 5.01404,7.35931 4.36706,-4.44793 c 0.32349,0.97045 0.48523,1.86004 0.64697,2.8305 l -4.28619,4.28619 v -0.0809 c -0.16174,-0.80871 -0.40436,-1.6983 -0.72784,-2.58789 z"
       id="path42"
       style="clip-rule:evenodd;fill:#58585a;fill-rule:evenodd;stroke-width:0.808716" />
  </g>
</svg>
